<!-- Generated by IcoMoon.io -->
<svg version="1.1" xmlns="http://www.w3.org/2000/svg" width="24" height="24" viewBox="0 0 24 24">
<title>add</title>
<path d="M14.695 21.844v-7.148h6.888c0.473 0 1.198-0.324 1.198-0.826v-3.737c0-0.502-0.724-0.828-1.198-0.828h-6.888v-7.148c0-0.502-0.492-0.938-0.967-0.938h-3.386c-0.473 0-1.038 0.439-1.038 0.938v7.148h-6.888c-0.473 0-1.198 0.326-1.198 0.828v3.737c0 0.502 0.724 0.826 1.198 0.826h6.888v7.148c0 0.502 0.563 0.938 1.038 0.938h3.386c0.474 0 0.967-0.437 0.967-0.938z"></path>
</svg>
