<!-- Generated by IcoMoon.io -->
<svg version="1.1" xmlns="http://www.w3.org/2000/svg" width="24" height="24" viewBox="0 0 24 24">
<title>always_on</title>
<path d="M10.25 14.47c0.12 0.88 2.25 1.59 4.84 1.59s4.72-0.71 4.84-1.59v-1.73c0-0.93-2.18-1.67-4.84-1.67s-4.84 0.75-4.84 1.67z"></path>
<path d="M19.93 16.5v5.59c0 0.93-2.18 1.67-4.84 1.67-0.036 0-0.077 0.001-0.119 0.001-1.056 0-2.080-0.143-3.051-0.41l0.081 0.019c-1.090-0.31-1.77-0.77-1.77-1.29v-5.58c0.341 0.25 0.736 0.454 1.161 0.592l0.029 0.008c1.029 0.331 2.213 0.522 3.442 0.522 0.073 0 0.146-0.001 0.219-0.002l-0.011 0c0.062 0.001 0.135 0.002 0.208 0.002 1.229 0 2.413-0.191 3.524-0.544l-0.082 0.023c0.462-0.145 0.863-0.349 1.222-0.609l-0.012 0.009z"></path>
<path d="M9.13 12.44v-0.64c0-0.66 1.13-1.22 2.74-1.49v-0.57c0-0.93-2.18-1.67-4.84-1.67s-4.84 0.75-4.84 1.67v1.73c0.12 0.88 2.25 1.59 4.84 1.59 0.707-0.001 1.399-0.059 2.074-0.17l-0.074 0.010v-0.46z"></path>
<path d="M7 14.62c-0.062 0.001-0.135 0.002-0.208 0.002-1.229 0-2.413-0.191-3.524-0.544l0.082 0.023c-0.454-0.146-0.849-0.35-1.202-0.608l0.012 0.008v5.59c0 0.51 0.68 1 1.77 1.29 0.869 0.236 1.868 0.371 2.897 0.371 0.061 0 0.121-0 0.182-0.001l-0.009 0c0.707-0.001 1.399-0.059 2.074-0.17l-0.074 0.010v-6.14c-0.593 0.108-1.275 0.17-1.971 0.17-0.010 0-0.020-0-0.030-0h0.002z"></path>
<path d="M9.13 12.44h-0.070v0.46h0.070z"></path>
<path d="M6.32 3.87c1.23-1.234 2.931-1.998 4.811-1.998 2.738 0 5.098 1.621 6.172 3.956l0.017 0.042h1.76c-1.195-3.303-4.305-5.62-7.955-5.62s-6.76 2.317-7.936 5.561l-0.019 0.059h1.77c0.355-0.774 0.818-1.436 1.38-2l-0 0z"></path>
<path d="M21.77 3.74l-2.32 5.63-5.63-2.33 7.95-3.3z"></path>
</svg>
