<!-- Generated by IcoMoon.io -->
<svg version="1.1" xmlns="http://www.w3.org/2000/svg" width="24" height="24" viewBox="0 0 24 24">
<title>analyze</title>
<path d="M23.64 17.88c0-0.24 0-0.36-0.12-0.6v0l-2.040-8.040c-0.24-2.16-2.040-3.72-4.2-3.72-0.12 0-0.24 0-0.36 0-1.080 0.12-2.16 0.6-2.88 1.56-0.12 0.12-0.24 0.36-0.24 0.36h-3.6c-0.12 0-0.12-0.24-0.24-0.24-0.72-0.96-1.8-1.44-2.88-1.56-0.12 0-0.24 0-0.36 0-2.16 0-3.96 1.56-4.2 3.72l-2.040 8.040c0 0.24-0.12 0.36-0.12 0.6-0.12 1.2 0.36 2.4 1.2 3.24s2.040 1.44 3.36 1.56c0.24 0 0.36 0 0.6 0v0c2.64 0 4.68-1.68 4.92-3.84 0 0 0 0 0 0v0 0c0-0.12 0 0 0-0.12v-1.2h2.88l0.12 1.2c0 0.12 0.12 0 0.12 0.12v0 0c0 0-0.12 0 0 0 0.24 2.16 2.28 3.84 4.92 3.84v0c0.24 0 0.36 0 0.6 0 1.32-0.12 2.52-0.72 3.36-1.56 0.96-0.96 1.32-2.16 1.2-3.36zM8.88 18.84c-0.12 1.44-1.56 2.52-3.36 2.52-0.12 0-0.24 0-0.48 0-0.96-0.12-1.8-0.48-2.52-1.080-0.6-0.6-0.84-1.32-0.84-2.040 0.36-1.56 1.8-2.64 3.6-2.64 0.12 0 0.24 0 0.48 0 0.96 0.12 1.8 0.48 2.52 1.080 0.36 0.6 0.72 1.32 0.6 2.16v0zM21.36 20.16c-0.6 0.6-1.44 1.080-2.52 1.080-0.12 0-0.24 0-0.48 0-1.8 0-3.24-1.080-3.36-2.52v-0.12c0-0.72 0.24-1.44 0.84-1.92 0.6-0.6 1.44-1.080 2.52-1.080 0.12 0 0.24 0 0.48 0 1.8 0 3.24 1.080 3.36 2.52 0 0.72-0.24 1.44-0.84 2.040zM14.28 5.040c0.72-0.72 1.56-1.080 2.52-1.2 0.12 0 0.24 0 0.36 0 0.84 0 1.56 0.24 2.16 0.6l-0.12-1.080c0-0.12 0-0.36 0-0.36-0.36-1.080-1.2-1.8-2.4-1.8-0.12 0-0.12 0-0.24 0-1.2 0.12-2.16 1.080-2.28 2.28 0 0 0 0.36 0 0.36v1.2zM7.080 3.84c0.96 0.12 1.92 0.48 2.52 1.2v-1.2c0-0.12 0-0.36 0-0.36 0-1.2-0.84-2.16-2.16-2.28 0 0-0.12 0-0.24 0-1.080 0-2.040 0.72-2.4 1.8 0 0 0 0.36 0 0.36l-0.24 1.080c0.6-0.36 1.32-0.6 2.16-0.6 0.12 0 0.24 0 0.36 0z"></path>
</svg>
