<!-- Generated by IcoMoon.io -->
<svg version="1.1" xmlns="http://www.w3.org/2000/svg" width="24" height="24" viewBox="0 0 24 24">
<title>arrow-right</title>
<path d="M2.259 11.109l8.794-8.794c0.366-0.366 0.722-0.469 1.2-0.272 0.469 0.197 0.6 0.656 0.6 1.163v3.637h8.419c0.694 0 0.863 0.675 0.863 1.369v7.566c0 0.694-0.159 1.181-0.863 1.181h-8.428v3.825c0 0.506-0.131 0.966-0.6 1.163-0.159 0.066-0.234 0.094-0.394 0.094-0.328 0-0.609-0.131-0.844-0.366l-8.766-8.794c-0.234-0.234-0.356-0.553-0.356-0.891-0.009-0.328 0.131-0.647 0.375-0.881z"></path>
</svg>
