<!-- Generated by IcoMoon.io -->
<svg version="1.1" xmlns="http://www.w3.org/2000/svg" width="24" height="24" viewBox="0 0 24 24">
<title>checkmark</title>
<path d="M22.9 4.3l-0.5-1.3c-0.1-0.2-0.3-0.4-0.5-0.5-0.1 0-0.2 0-0.3 0-0.2 0-0.3 0-0.5 0.1-6.1 3.8-10.7 8.5-12.7 10.9l-4.5-3.5c-0.1-0.1-0.3-0.2-0.5-0.2s-0.4 0.1-0.6 0.2l-2.3 1.8c-0.2 0.2-0.3 0.4-0.3 0.6s0.1 0.5 0.2 0.7l8.8 9c0.2 0.2 0.4 0.3 0.6 0.3 0.1 0 0.1 0 0.2 0 0.3-0.1 0.5-0.3 0.6-0.5 1.4-3.6 6-11.1 12-16.6 0.4-0.3 0.5-0.7 0.3-1z"></path>
</svg>
