<!-- Generated by IcoMoon.io -->
<svg version="1.1" xmlns="http://www.w3.org/2000/svg" width="24" height="24" viewBox="0 0 24 24">
<title>critical</title>
<path d="M16.22 10.17h2.78v8.83h-2.78v-8.83z"></path>
<path d="M16 20h3v3h-3v-3z"></path>
<path d="M14.71 17v-2.67c-0.566 0.396-1.269 0.633-2.027 0.633-1.966 0-3.56-1.594-3.56-3.56s1.594-3.56 3.56-3.56c1.039 0 1.973 0.445 2.624 1.154l0.002 0.003c0.248-0.198 0.565-0.318 0.91-0.32h2.261c0.416 0.001 0.791 0.173 1.060 0.45l0 0c0.269 0.201 0.445 0.514 0.46 0.868l0 0.002v5l0.79-1.11 2.54-0.75 0.67-2.82-0.41-0.13-2.73-0.95-0.7-1.77 1.45-2.92-1.75-1.83-0.34 0.16-2.59 1.24-1.73-0.76-1-3.1-2.58-0.060-0.12 0.36-0.95 2.7-1.77 0.69-2.92-1.46-1.86 1.75 0.16 0.34 1.26 2.59-0.76 1.73-3.1 1-0.060 2.58 0.36 0.12 2.7 0.95 0.69 1.77-1.46 2.92 1.76 1.84 0.34-0.16 2.58-1.24 1.73 0.82 1 3.15 2.54 0.060 0.13-0.41 0.8-2.31v-2.99z"></path>
<path d="M19.99 16.63l0.010 0.030v-0.060l-0.010 0.030z"></path>
<path d="M21.38 18.55l-0.16-0.34-1.21-1.53-0.010 3.2 1.38-1.33z"></path>
</svg>
