<!-- Generated by IcoMoon.io -->
<svg version="1.1" xmlns="http://www.w3.org/2000/svg" width="24" height="24" viewBox="0 0 24 24">
<title>custom_group</title>
<path d="M20.070 10.16l0.12 0.38 0.38 0.12 0.43-0.43v-1l-0.93 0.93z"></path>
<path d="M16 6h-8v-2h8z"></path>
<path d="M0 4.5v15.5c0 0.83 1.9 1.52 3 1.52v-18.52c-1.1 0-3 0.67-3 1.5z"></path>
<path d="M21.84 6.65s0 0 0 0c0.076 0.21 0.119 0.452 0.119 0.705 0 0.572-0.225 1.092-0.59 1.476l0.001-0.001-0.37 0.4v1l0.86-0.85c0.373-0.383 0.893-0.62 1.469-0.62 0.011 0 0.022 0 0.033 0l-0.002-0c0.229 0.001 0.449 0.038 0.655 0.104l-0.015-0.004v-4.36c0-0.83-1.9-1.5-3-1.5v2.61c0.388 0.241 0.682 0.6 0.836 1.026l0.004 0.014z"></path>
<path d="M23.74 15.4v0c-0.736 0.729-1.663 1.266-2.699 1.531l-0.041 0.009v4.58c1.1 0 3-0.68 3-1.52v-4.89z"></path>
<path d="M18.63 17.070l-5.86 6.32c-0.135 0.126-0.282 0.245-0.437 0.352l-0.013 0.008h6.17c0.818-0.005 1.482-0.655 1.51-1.467l0-0.003v-5.17c-0.14 0-0.29 0-0.43 0-0.082 0.005-0.177 0.008-0.273 0.008-0.235 0-0.467-0.017-0.693-0.051l0.026 0.003z"></path>
<path d="M6.25 20.74c0-0.002 0-0.004 0-0.006 0-1.033 0.412-1.969 1.081-2.654l-0.001 0.001 6.25-5.9s0-0.070 0-0.11h-6.17c-0.799-0.069-1.421-0.734-1.421-1.545 0-0.065 0.004-0.13 0.012-0.193l-0.001 0.008v-6.67c-0.003-0.035-0.004-0.076-0.004-0.117 0-0.81 0.618-1.476 1.408-1.553l0.006-0h9.18c0.797 0.077 1.414 0.743 1.414 1.553 0 0.041-0.002 0.082-0.005 0.122l0-0.005v1.79c0.458-0.129 0.984-0.206 1.528-0.21l0.002-0h0.44v-3.7c0-0.006 0-0.013 0-0.020 0-0.842-0.679-1.524-1.52-1.53h-12.901c-0.006-0-0.013-0-0.020-0-0.845 0-1.53 0.685-1.53 1.53 0 0.007 0 0.014 0 0.021v-0.001 20.73c0.006 0.835 0.684 1.51 1.52 1.51 0 0 0 0 0 0h2.28c-0.164-0.115-0.307-0.233-0.441-0.361l0.001 0.001c-0.686-0.687-1.11-1.636-1.11-2.684 0-0.002 0-0.004 0-0.006v0z"></path>
<path d="M8 8v2h5.71c0.16-0.757 0.44-1.426 0.824-2.024l-0.014 0.024z"></path>
<path d="M8 4h8v2h-8v-2z"></path>
<path d="M7.34 18.080v0 0z"></path>
<path d="M19.85 7.37l-0.020 0.010h0.030v-0.010h-0.010z"></path>
<path d="M22.5 14.17c-0.763 0.779-1.826 1.262-3.001 1.262-0.524 0-1.025-0.096-1.488-0.271l0.029 0.010-0.16 0.18-6.37 6.86c-0.371 0.371-0.884 0.601-1.45 0.601-1.133 0-2.051-0.918-2.051-2.051 0-0.566 0.23-1.079 0.601-1.45v0l6.99-6.6c-0.182-0.453-0.287-0.978-0.287-1.527 0-2.32 1.88-4.2 4.2-4.2 0.133 0 0.264 0.006 0.394 0.018l-0.017-0.001c0.144 0.012 0.263 0.108 0.309 0.237l0.001 0.003c0.014 0.037 0.022 0.080 0.022 0.125 0 0.099-0.039 0.189-0.102 0.255l0-0-2 2 0.72 2.26 2.26 0.72 2-2c0.066-0.069 0.158-0.111 0.26-0.111 0.192 0 0.349 0.151 0.359 0.341l0 0.001c0.010 0.11 0.016 0.239 0.016 0.368 0 1.161-0.473 2.213-1.236 2.972l-0 0z"></path>
</svg>
