<!-- Generated by IcoMoon.io -->
<svg version="1.1" xmlns="http://www.w3.org/2000/svg" width="24" height="24" viewBox="0 0 24 24">
<title>custom_group1</title>
<path d="M14 20.58v2.42h2.42l-2.42-2.42z"></path>
<path d="M15.151 18.95l5.36-5.36 2.68 2.68-5.36 5.36-2.68-2.68z"></path>
<path d="M21.319 12.78l1.004-1.004 2.68 2.68-1.004 1.004-2.68-2.68z"></path>
<path d="M1 4.5v15.5c0 0.83 1.9 1.52 3 1.52v-18.52c-1.1 0-3 0.67-3 1.5z"></path>
<path d="M9 4h8v2h-8zM9 8h8v2h-8z"></path>
<path d="M12.62 20.41c0-0.567 0.348-1.053 0.841-1.257l0.009-0.003c0.126-0.057 0.274-0.090 0.43-0.090 0 0 0 0 0 0h-0c-0.010-0.057-0.015-0.123-0.015-0.19s0.006-0.133 0.016-0.197l-0.001 0.007c-0.001-0.016-0.001-0.034-0.001-0.052 0-0.372 0.154-0.707 0.401-0.947l0-0 5.7-5.68c0.147-0.147 0.328-0.261 0.531-0.327l0.009-0.003c0.064-0.21 0.179-0.389 0.329-0.529l0.001-0.001 0.13-0.14v-9.45c0-0.006 0-0.013 0-0.020 0-0.845-0.685-1.53-1.53-1.53-0.007 0-0.014 0-0.021 0h-12.899c-0.006-0-0.013-0-0.020-0-0.845 0-1.53 0.685-1.53 1.53 0 0.007 0 0.014 0 0.021v-0.001 20.73c0.006 0.835 0.684 1.51 1.52 1.51 0 0 0 0 0 0h6.38c-0.164-0.219-0.267-0.491-0.28-0.787l-0-0.003zM7 10.34v-6.67c-0.003-0.035-0.004-0.076-0.004-0.117 0-0.81 0.618-1.476 1.408-1.553l0.006-0h9.18c0.797 0.077 1.414 0.743 1.414 1.553 0 0.041-0.002 0.082-0.005 0.122l0-0.005v6.67c0.003 0.035 0.004 0.075 0.004 0.116 0 0.808-0.619 1.472-1.408 1.544l-0.006 0h-9.18c-0.796-0.072-1.414-0.736-1.414-1.544 0-0.041 0.002-0.081 0.005-0.121l-0 0.005zM9.5 16c-0.828 0-1.5-0.672-1.5-1.5s0.672-1.5 1.5-1.5c0.828 0 1.5 0.672 1.5 1.5v0c0 0.828-0.672 1.5-1.5 1.5v0z"></path>
<path d="M18.090 22.92c-0.021 0.005-0.045 0.007-0.070 0.007s-0.049-0.003-0.072-0.008l0.002 0c0.002 0.015 0.004 0.032 0.004 0.050s-0.001 0.035-0.004 0.052l0-0.002c0 0.004 0 0.008 0 0.012 0 0.183-0.037 0.358-0.103 0.517l0.003-0.009c-0.044 0.099-0.094 0.185-0.153 0.264l0.003-0.004h1.75c0.009 0 0.019 0 0.030 0 0.839 0 1.52-0.681 1.52-1.52 0-0 0-0 0-0v0-1.67l-1.91 1.91c-0.251 0.247-0.596 0.4-0.976 0.4-0.008 0-0.017-0-0.025-0l0.001 0z"></path>
<path d="M9 8h8v2h-8v-2z"></path>
<path d="M9 4h8v2h-8v-2z"></path>
<path d="M17.85 23.52v0.010l0.010-0.010h-0.010z"></path>
<path d="M14.26 17.71v-0.010h-0.010l0.010 0.010z"></path>
<path d="M17.58 22v0l0.060-0.060z"></path>
</svg>
