<!-- Generated by IcoMoon.io -->
<svg version="1.1" xmlns="http://www.w3.org/2000/svg" width="24" height="24" viewBox="0 0 24 24">
<title>dashboard</title>
<path d="M19.4 9.5c0 0.5-0.4 0.9-0.9 0.9h-3c-0.3 0-0.6-0.2-0.8-0.6l-1-1.5-1.8 5.3c-0.1 0.3-0.4 0.5-0.7 0.6v0 0c-0.3 0-0.6-0.2-0.7-0.4v0l-2.5-3.4h-2.5c-0.5-0.1-0.9-0.4-0.9-0.9s0.4-0.9 0.9-0.9h3c0.3 0 0.5 0.2 0.7 0.4 0 0 0 0 0 0l1.8 2.2 1.9-5.8c0.1-0.3 0.4-0.6 0.8-0.6v0 0c0.4 0 0.7 0.3 0.7 0.6l1.6 3.1h2.4c0.6 0.1 1 0.5 1 1z"></path>
<path d="M20.3 0h-16.6c-2.1 0-3.7 1.7-3.7 3.8v11.4c0 2.1 1.6 3.8 3.7 3.8h5.3v3h-3c-0.5 0-1 0.5-1 1s0.5 1 1 1h12c0.5 0 1-0.5 1-1s-0.5-1-1-1h-3v-3h5.3c2.1 0 3.7-1.7 3.7-3.8v-11.4c0-2.1-1.6-3.8-3.7-3.8zM21 16h-18v-14c0.2 0 0.5-0.1 0.7-0.1h16.6c0.2 0 0.5 0 0.7 0.1v14z"></path>
</svg>
