<!-- Generated by IcoMoon.io -->
<svg version="1.1" xmlns="http://www.w3.org/2000/svg" width="24" height="24" viewBox="0 0 24 24">
<title>dashboard1</title>
<path d="M20.31 18v-0.9h-16.62c-0.511-0.003-0.972-0.217-1.299-0.559l-0.001-0.001c-0.334-0.345-0.54-0.816-0.54-1.335 0-0.002 0-0.004 0-0.005v0-11.4c0-0.002 0-0.003 0-0.005 0-0.519 0.206-0.99 0.54-1.335l-0 0.001c0.328-0.343 0.789-0.557 1.3-0.56h16.62c0.511 0.003 0.972 0.217 1.299 0.559l0.001 0.001c0.334 0.345 0.54 0.816 0.54 1.335 0 0.002 0 0.004 0 0.005v-0 11.4c0 0.001 0 0.003 0 0.005 0 0.519-0.206 0.99-0.54 1.335l0-0.001c-0.328 0.343-0.789 0.557-1.3 0.56h-0v1.9c2.045-0.034 3.69-1.699 3.69-3.75 0-0.018-0-0.035-0-0.053l0 0.003v-11.4c0-0.015 0-0.033 0-0.050 0-2.050-1.645-3.716-3.687-3.749l-0.003-0h-16.62c-2.045 0.034-3.69 1.699-3.69 3.75 0 0.018 0 0.035 0 0.053l-0-0.003v11.4c-0 0.015-0 0.033-0 0.050 0 2.050 1.645 3.716 3.687 3.749l0.003 0h16.62z"></path>
<path d="M11 18h2c0.552 0 1 0.448 1 1v3c0 0.552-0.448 1-1 1h-2c-0.552 0-1-0.448-1-1v-3c0-0.552 0.448-1 1-1z"></path>
<path d="M7 22h10v2h-10v-2z"></path>
<path d="M3.56 10h5.32l1.74 3.47c0.078 0.18 0.255 0.304 0.46 0.304s0.382-0.124 0.459-0.301l0.001-0.003 2.25-6 0.55 2.19c0.056 0.22 0.252 0.38 0.485 0.38 0.002 0 0.003 0 0.005-0h5.62c0.276 0 0.5-0.224 0.5-0.5s-0.224-0.5-0.5-0.5v0h-5.25l-0.84-3.37c0-0.007 0.001-0.016 0.001-0.025 0-0.276-0.224-0.501-0.501-0.501-0.268 0-0.486 0.21-0.5 0.474l-0 0.001-2.36 6.38-1.37-2.72c-0.082-0.165-0.247-0.276-0.44-0.28h-5.63c-0.276 0-0.5 0.224-0.5 0.5s0.224 0.5 0.5 0.5v0z"></path>
</svg>
