<!-- Generated by IcoMoon.io -->
<svg version="1.1" xmlns="http://www.w3.org/2000/svg" width="24" height="24" viewBox="0 0 24 24">
<title>database-edit</title>
<path d="M8.953 8.813c3.572 0 6.441-0.75 7.809-1.809 0.019-0.019 0.028-0.038 0.047-0.047 0.122-0.122 0.244-0.234 0.366-0.338 0.159-0.178 0.253-0.356 0.347-0.544v-3c0.009-1.594-3.891-2.888-8.569-2.888s-8.578 1.294-8.578 2.888v2.991c0 1.528 4.031 2.747 8.578 2.747zM8.944 15.572c-0.038 0-0.075 0-0.122 0-2.4 0-4.659-0.319-6.384-0.909-0.909-0.309-1.509-0.666-2.072-1.041v3.422c0 0.9 1.191 1.697 3.075 2.231 0.628 0.178 1.359 0.328 2.147 0.431 0.113-1.097 0.591-2.137 1.397-2.934 0.563-0.563 1.228-0.966 1.959-1.2zM8.953 14.334c1.172 0 2.269-0.084 3.263-0.225l3.197-3.197c-0.066-0.619-0.009-1.247 0.159-1.838-0.075 0.028-0.15 0.056-0.234 0.084-1.725 0.591-4.059 0.909-6.45 0.909-2.4 0-4.688-0.328-6.412-0.909-0.919-0.319-1.537-0.675-2.1-1.041v3.506c0 1.509 4.078 2.709 8.578 2.709zM23.691 9.459l-2.016 2.016-1.978-0.534-0.525-1.978 2.016-2.006c-0.3-0.084-0.619-0.122-0.928-0.122-0.909 0-1.819 0.347-2.512 1.041-0.075 0.075-0.15 0.159-0.225 0.244-0.759 0.919-0.994 2.128-0.694 3.225l-2.231 2.231c0 0 0 0 0 0l-1.678 1.678c0 0 0 0 0 0l-1.538 1.537c-0.309-0.084-0.628-0.131-0.956-0.131-0.909 0-1.819 0.347-2.513 1.041-0.6 0.6-0.938 1.369-1.022 2.147-0.047 0.431-0.009 0.872 0.103 1.294l2.016-2.016 1.978 0.525 0.047 0.188 0.478 1.791-2.016 2.016c0.3 0.084 0.619 0.122 0.928 0.122 0.909 0 1.819-0.347 2.513-1.041 0.909-0.9 1.219-2.175 0.947-3.337-0.019-0.094-0.047-0.197-0.084-0.291l5.325-5.325c0.356 0.122 0.731 0.178 1.106 0.178 0.909 0 1.819-0.347 2.513-1.041 0.966-0.928 1.266-2.259 0.947-3.45z"></path>
</svg>
