<!-- Generated by IcoMoon.io -->
<svg version="1.1" xmlns="http://www.w3.org/2000/svg" width="24" height="24" viewBox="0 0 24 24">
<title>details1</title>
<path d="M14.194 16.669c0 0 0-5.353 0-6.478 0 0-0.019-1.481-0.741-1.481-0.834 0-2.372 0-3.122 0-0.272 0-0.441 0-0.441 0s0 0 0 0c-0.066 0-1.125 0.056-1.125 1.097 0 0.169 0.028 0.309 0.066 0.422 0.216 0.628 0.881 0.666 1.012 0.666 0.009 0 0.019 0.009 0.019 0.009h0.741v5.794h-0.703c-0.75 0-1.491 0.281-1.491 1.406v0.722c0 0.206 0.019 0.394 0.056 0.544 0.225 0.9 1.022 0.928 1.397 0.928h4.322c1.134 0 1.425-0.75 1.425-1.472 0 0 0 0 0-0.722-0.009-0.712-0.712-1.434-1.416-1.434z"></path>
<path d="M11.316 7.303h2.156c0.394 0 0.722-0.319 0.722-0.722v-2.156c0-0.394-0.319-0.722-0.722-0.722h-2.156c-0.394 0-0.722 0.319-0.722 0.722v2.156c0 0.403 0.328 0.722 0.722 0.722z"></path>
<path d="M12 1.697c2.747 0 5.334 1.069 7.284 3.019s3.019 4.528 3.019 7.284-1.069 5.334-3.019 7.284-4.528 3.019-7.284 3.019-5.334-1.069-7.284-3.019-3.019-4.537-3.019-7.284 1.069-5.334 3.019-7.284 4.538-3.019 7.284-3.019zM12 0.281c-6.469 0-11.719 5.25-11.719 11.719s5.25 11.719 11.719 11.719 11.719-5.25 11.719-11.719-5.25-11.719-11.719-11.719v0z"></path>
</svg>
