<!-- Generated by IcoMoon.io -->
<svg version="1.1" xmlns="http://www.w3.org/2000/svg" width="24" height="24" viewBox="0 0 24 24">
<title>details</title>
<path d="M8.813 23.438h6.422c1.491 0 1.453-0.563 1.453-1.556 0 0 0-0.188 0-1.181 0-0.938-0.094-1.491-1.781-1.491 0 0 0-8.156 0-9.713 0 0-0.047-1.997-0.994-1.997-1.097 0-3.113 0-4.106 0-0.356 0-0.581 0-0.581 0s0-0.019 0-0.019c-0.084 0-1.481 0.066-1.481 1.5 0 0.225 0.028 0.422 0.084 0.581 0.281 0.862 1.162 0.919 1.331 0.919 0.019 0 0.028 0.019 0.028 0.019h0.938v8.719h-0.9c-1.612 0-1.912 0.281-1.912 1.481 0 0 0 0 0 0.994s-0.112 1.744 1.5 1.744z"></path>
<path d="M11.1 5.531h2.841c0.525 0 0.966-0.45 0.966-1.003v-2.972c0-0.544-0.45-0.994-0.966-0.994h-2.841c-0.525 0-0.975 0.441-0.975 0.994v2.981c0 0.544 0.45 0.994 0.975 0.994z"></path>
</svg>
