<!-- Generated by IcoMoon.io -->
<svg version="1.1" xmlns="http://www.w3.org/2000/svg" width="24" height="24" viewBox="0 0 24 24">
<title>disable</title>
<path d="M2.326 17.554l17.679-12.755c0.672-0.485 1.609-0.333 2.094 0.339s0.333 1.609-0.339 2.094l-17.679 12.755c-0.672 0.485-1.609 0.333-2.094-0.339s-0.333-1.609 0.339-2.094z"></path>
<path d="M21.15 8.9l-3.26 2.35c0.031 0.228 0.049 0.491 0.049 0.759 0 3.281-2.659 5.94-5.94 5.94-0.938 0-1.825-0.217-2.614-0.604l0.035 0.016-1.42 1.050c1.2 0.422 2.584 0.666 4.025 0.666 4.769 0 8.915-2.671 11.022-6.599l0.033-0.067 0.24-0.44-0.32-0.41c-0.531-1.013-1.146-1.887-1.859-2.67l0.009 0.010z"></path>
<path d="M6.060 12c-0-0.014-0-0.029-0-0.045 0-3.27 2.65-5.92 5.92-5.92 1.206 0 2.327 0.36 3.262 0.979l-0.022-0.014 1.57-1.14c-1.404-0.593-3.037-0.938-4.75-0.938-4.758 0-8.895 2.659-11.007 6.571l-0.033 0.066-0.28 0.44 0.24 0.44c0.659 1.205 1.458 2.236 2.394 3.125l0.006 0.005 2.9-2.090c-0.123-0.443-0.195-0.952-0.2-1.477l-0-0.003z"></path>
<path d="M10.86 8.33c-1.582 0.498-2.71 1.952-2.71 3.67 0 0 0 0 0 0v0s0 0.070 0 0.11l5.15-3.71c-0.394-0.154-0.849-0.243-1.326-0.243-0.401 0-0.788 0.063-1.151 0.18l0.026-0.007z"></path>
<path d="M12 15.85c0.002 0 0.005 0 0.008 0 1.848 0 3.391-1.306 3.758-3.045l0.004-0.025-4.2 3c0.118 0.028 0.264 0.053 0.413 0.069l0.017 0.001z"></path>
</svg>
