<!-- Generated by IcoMoon.io -->
<svg version="1.1" xmlns="http://www.w3.org/2000/svg" width="24" height="24" viewBox="0 0 24 24">
<title>disk</title>
<path d="M8.3 15.8h14.1c0.4 0 0.8 0.3 1.1 0.6 0-0.3-0.1-0.4-0.1-0.6l-1.9-6.6c-0.3-0.9-0.9-1.5-1.6-1.5h-9c-0.7 0-1.3 0.6-1.6 1.5l-1.9 6.6c0 0.2-0.1 0.4-0.1 0.5 0.3-0.3 0.7-0.5 1-0.5z"></path>
<path d="M23.6 17.8v2c0 0.7-0.6 1.3-1.3 1.3h-13.7c-0.7 0-1.3-0.5-1.3-1.3v-2c0-0.7 0.6-1.3 1.3-1.3h13.7c0.7 0.1 1.3 0.6 1.3 1.3z"></path>
<path d="M7.8 11l0.7-2.6c0.3-0.9 0.9-1.5 1.6-1.5h5.2l-0.7-2.5c-0.3-0.9-0.9-1.5-1.6-1.5h-9c-0.7 0-1.3 0.6-1.6 1.5l-1.8 6.6c-0.1 0.1-0.1 0.4-0.1 0.5 0.3-0.3 0.6-0.5 1-0.5h6.3z"></path>
<path d="M7.6 11.8h-5.9c-0.7 0-1.3 0.5-1.3 1.3v2c0 0.7 0.6 1.3 1.3 1.3h4.6l1.3-4.6z"></path>
</svg>
