<!-- Generated by IcoMoon.io -->
<svg version="1.1" xmlns="http://www.w3.org/2000/svg" width="24" height="24" viewBox="0 0 24 24">
<title>enable</title>
<path d="M23 12.56c-2.161-3.932-6.274-6.552-11-6.552s-8.839 2.62-10.967 6.487l-0.033 0.065-0.28 0.44 0.24 0.44c2.148 3.978 6.286 6.636 11.045 6.636s8.897-2.657 11.012-6.569l0.033-0.066 0.24-0.44zM17.63 14.77c-0.822 2.398-3.058 4.092-5.688 4.092-3.314 0-6-2.686-6-6s2.686-6 6-6c3.314 0 6 2.686 6 6 0 0.049-0.001 0.097-0.002 0.146l0-0.007c0 0.010 0 0.022 0 0.034 0 0.619-0.095 1.216-0.271 1.777l0.011-0.042z"></path>
<path d="M15.19 10.85c-0.702-1.029-1.868-1.696-3.191-1.696-0.41 0-0.806 0.064-1.177 0.183l0.027-0.008c-0.381 0.121-0.712 0.284-1.013 0.489l0.013-0.009c-1.029 0.702-1.696 1.868-1.696 3.191 0 0.41 0.064 0.806 0.183 1.177l-0.008-0.027c0.121 0.381 0.284 0.712 0.489 1.013l-0.009-0.013c0.702 1.029 1.868 1.696 3.191 1.696 0.41 0 0.806-0.064 1.177-0.183l-0.027 0.008c0.381-0.121 0.712-0.284 1.013-0.489l-0.013 0.009c1.029-0.702 1.696-1.868 1.696-3.191 0-0.41-0.064-0.806-0.183-1.177l0.008 0.027c-0.121-0.381-0.284-0.712-0.489-1.013l0.009 0.013z"></path>
</svg>
