<!-- Generated by IcoMoon.io -->
<svg version="1.1" xmlns="http://www.w3.org/2000/svg" width="24" height="24" viewBox="0 0 24 24">
<title>error</title>
<path d="M12 0.281c-6.469 0-11.719 5.25-11.719 11.719s5.25 11.719 11.719 11.719 11.719-5.25 11.719-11.719-5.25-11.719-11.719-11.719zM18.825 16.941l-1.847 1.847c-0.262 0.262-0.806 0.328-1.078 0.056l-3.9-3.9-3.759 3.759c-0.262 0.263-0.834 0.478-1.106 0.206l-2.044-2.044c-0.272-0.272-0.056-0.844 0.206-1.106l3.759-3.759-3.9-3.9c-0.272-0.272-0.206-0.825 0.056-1.078l1.847-1.847c0.263-0.263 0.769-0.291 1.041-0.009l3.9 3.891 3.759-3.759c0.262-0.262 0.834-0.478 1.106-0.206l2.044 2.044c0.272 0.272 0.056 0.844-0.206 1.106l-3.769 3.759 3.9 3.9c0.281 0.272 0.244 0.778-0.009 1.041z"></path>
</svg>
