<!-- Generated by IcoMoon.io -->
<svg version="1.1" xmlns="http://www.w3.org/2000/svg" width="24" height="24" viewBox="0 0 24 24">
<title>expandAll</title>
<path d="M21.966 11.559c-0.272 0-0.544 0.094-0.778 0.272l-9.188 7.387-9.188-7.378c-0.534-0.431-1.313-0.347-1.744 0.188s-0.347 1.313 0.188 1.744l9.966 8.006c0.45 0.366 1.097 0.366 1.547 0l9.966-8.006c0.534-0.431 0.619-1.209 0.188-1.744-0.234-0.309-0.6-0.469-0.956-0.469z"></path>
<path d="M21.966 1.959c-0.272 0-0.544 0.094-0.778 0.272l-9.188 7.378-9.188-7.378c-0.534-0.431-1.313-0.347-1.744 0.188s-0.347 1.313 0.188 1.744l9.966 8.006c0.45 0.366 1.097 0.366 1.547 0l9.966-8.006c0.534-0.431 0.619-1.209 0.188-1.744-0.234-0.3-0.6-0.459-0.956-0.459z"></path>
</svg>
