<!-- Generated by IcoMoon.io -->
<svg version="1.1" xmlns="http://www.w3.org/2000/svg" width="24" height="24" viewBox="0 0 24 24">
<title>export</title>
<path d="M6.375 16.406c-1.459-3.009-1.104-6.656 1.392-9.076 1.064-1.031 2.467-1.661 3.905-2.018 0.797-0.197 1.749-0.352 2.722-0.432 0.409-0.036 0.739-0.079 1.073-0.108 0.291-0.025 0.607-0.087 0.607-0.087 0.033-1.061-0.031-1.688 0.029-2.936l0.049-0.199c0.030-0.252 0.069-0.375 0.261-0.441l0.25 0.016c0.127 0.015 0.237 0.156 0.31 0.188l6.833 6.231c0.064 0.047 0.11 0.114 0.13 0.192 0.013 0.029 0.021 0.060 0.021 0.092s-0.008 0.064-0.021 0.091c-0.020 0.14-0.081 0.265-0.171 0.363l-4.5 3.432-2.806 2.097c-0.066 0.073-0.162 0.119-0.268 0.119-0.018 0-0.037-0.001-0.054-0.004-0.008 0.001-0.019 0.002-0.030 0.002-0.062 0-0.12-0.019-0.168-0.051-0.092-0.075-0.167-0.169-0.219-0.276-0.015-0.031-0.022-0.062-0.022-0.095s0.008-0.064 0.021-0.091l-0.225-3.71s-6.887 0.009-7.573 5.328c-0.056 0.919-0.958 2.582-1.545 1.374zM2.196 6c-0.874 0-2.153 1.277-2.153 2.85v11.184c0.002 1.575 1.278 2.851 2.853 2.853h15.982c1.575-0.002 2.851-1.278 2.853-2.853v-7.552l-0.173-0.173-2.425 1.825v5.928c-0.001 0.178-0.145 0.323-0.323 0.323h-15.844c-0.178-0.001-0.322-0.145-0.323-0.323v-11.144c0.001-0.178 0.145-0.323 0.323-0.323h1.531l1.869-2.569z"></path>
</svg>
