<!-- Generated by IcoMoon.io -->
<svg version="1.1" xmlns="http://www.w3.org/2000/svg" width="24" height="24" viewBox="0 0 24 24">
<title>file-excel</title>
<path d="M4.706 21.066c-0.075-0.094-0.178-0.197-0.272-0.272v-18.441c0.019 0 0.038 0.009 0.056 0.009h8.944v4.181c0 0.534 0.675 1.219 1.2 1.219h4.106v1.65h1.978v-2.991c0-0.028 0-0.047 0-0.075 0-0.169 0.009-0.413-0.178-0.6l-5.091-5.184c-0.197-0.197-0.403-0.197-0.572-0.188-0.028 0-0.047 0-0.075 0h-10.313c-1.594 0-1.95 0.806-1.95 1.116v19.491c0 0.853 1.106 1.978 1.95 1.978h4.041c0.038-0.141 0.094-0.272 0.178-0.403l1.022-1.491h-5.025zM23.212 23.259l-4.35-6.262 0.066-0.094 4.059-5.869c0.066-0.103 0.075-0.234 0.019-0.347s-0.169-0.178-0.291-0.178h-3.9c-0.122 0-0.234 0.066-0.291 0.169l-1.284 2.306c-0.272 0.516-0.516 0.984-0.778 1.538-0.262-0.506-0.534-0.994-0.862-1.547l-1.322-2.297c-0.056-0.103-0.169-0.169-0.291-0.169h-3.919c-0.122 0-0.234 0.066-0.291 0.178s-0.047 0.244 0.019 0.337l4.087 6.047-4.238 6.197c-0.066 0.103-0.075 0.234-0.019 0.347s0.169 0.178 0.291 0.178h3.9c0.122 0 0.234-0.066 0.291-0.169l0.253-0.459 1.003-1.828c0.009-0.019 0.028-0.047 0.038-0.066 0.094-0.178 0.188-0.347 0.281-0.516 0.225-0.413 0.431-0.788 0.609-1.163 0.009 0.009 0.009 0.019 0.019 0.028 0.291 0.506 0.591 1.022 0.984 1.65 0.019 0.028 0.038 0.056 0.056 0.084l1.078 1.809 0.281 0.478c0.056 0.103 0.169 0.159 0.281 0.159h3.947c0.122 0 0.234-0.066 0.291-0.178 0.056-0.131 0.047-0.263-0.019-0.366z"></path>
</svg>
