<!-- Generated by IcoMoon.io -->
<svg version="1.1" xmlns="http://www.w3.org/2000/svg" width="24" height="24" viewBox="0 0 24 24">
<title>filter</title>
<path d="M12 17.19v0z"></path>
<path d="M12 0.82c-6.42 0-11.62 1.94-11.62 4.33 0.001 0.22 0.045 0.43 0.124 0.621l-0.004-0.011c0.23 0.82 1 1.43 1.84 2.28l7.87 7.45v6.93c0 0.42 0.81 0.75 1.8 0.75s1.8-0.34 1.8-0.75v0-6.93l7.86-7.49c0.85-0.85 1.61-1.45 1.84-2.28 0.075-0.18 0.119-0.39 0.12-0.61v-0c0-2.35-5.21-4.29-11.63-4.29zM12 17.2v0zM12 8c-5 0-9-1.19-9-2.66s4-2.66 9-2.66 9 1.19 9 2.66-4 2.66-9 2.66z"></path>
<path d="M8.86 16.26v0 0 0z"></path>
</svg>
