<!-- Generated by IcoMoon.io -->
<svg version="1.1" xmlns="http://www.w3.org/2000/svg" width="24" height="24" viewBox="0 0 24 24">
<title>filter1</title>
<path d="M12 16.86v0 0 0 0 0z"></path>
<path d="M12 1c-6.23 0-11.28 1.85-11.28 4.17-0 0.003-0 0.006-0 0.009 0 0.209 0.040 0.409 0.114 0.592l-0.004-0.011c0.22 0.8 1 1.39 1.78 2.21l7.63 7.23v7.7c-0.003 0.018-0.006 0.039-0.006 0.060s0.002 0.042 0.006 0.062l-0-0.002 3.47-1.34v-6.48l7.67-7.2c0.82-0.82 1.56-1.41 1.78-2.21 0.070-0.172 0.11-0.372 0.11-0.581 0-0.003 0-0.006-0-0.009v0c0.010-2.35-5.040-4.2-11.27-4.2zM12 16.89v0z"></path>
<path d="M8.95 15.95v0z"></path>
<path d="M8.96 15.95l-0.010 0.010h0.010v-0.010z"></path>
</svg>
