<!-- Generated by IcoMoon.io -->
<svg version="1.1" xmlns="http://www.w3.org/2000/svg" width="24" height="24" viewBox="0 0 24 24">
<title>grid_view</title>
<path d="M22 0.6h-20.1c-0.8 0-1.4 0.6-1.4 1.4v20.2c0 0.8 0.6 1.4 1.4 1.4h20.2c0.8 0 1.4-0.6 1.4-1.4v-20.2c-0.1-0.8-0.7-1.4-1.5-1.4zM2.7 9.7h4.6v4.6h-4.6v-4.6zM7.3 21h-4.6v-4.6h4.6v4.6zM7.3 7.6h-4.6v-4.6h4.6v4.6zM9.6 9.7h4.6v4.6h-4.6v-4.6zM14.2 21h-4.6v-4.6h4.6v4.6zM14.2 7.6h-4.6v-4.6h4.6v4.6zM16.7 9.7h4.6v4.6h-4.6v-4.6zM21.3 21h-4.6v-4.6h4.6v4.6zM21.3 7.6h-4.6v-4.6h4.6v4.6z"></path>
</svg>
