<!-- Generated by IcoMoon.io -->
<svg version="1.1" xmlns="http://www.w3.org/2000/svg" width="24" height="24" viewBox="0 0 24 24">
<title>group1</title>
<path d="M16 9h-8c-0.552 0-1 0.448-1 1v0 12.9c0.033 0.526 0.467 0.94 0.998 0.94 0.001 0 0.001 0 0.002 0h8c0.001 0 0.001 0 0.002 0 0.531 0 0.966-0.414 0.998-0.937l0-0.003v-12.9c0-0.552-0.448-1-1-1v0zM15 15v1h-6v-5h6z"></path>
<path d="M9 0.82c0-0.45-0.73-0.82-1.18-0.82h-7c-0.453 0-0.82 0.367-0.82 0.82v0 11.18c0.056 0.528 0.472 0.944 0.995 1l0.005 0h5v-4c-0.012-0.058-0.019-0.124-0.019-0.192 0-0.531 0.413-0.965 0.936-0.998l0.003-0h2.080zM7 6h-5v-5h5z"></path>
<path d="M15 7.81h2.080c0.525 0.033 0.939 0.467 0.939 0.998 0 0.068-0.007 0.134-0.020 0.198l0.001-0.006v4h5c0.528-0.056 0.944-0.472 1-0.995l0-0.005v-11.18c0-0.453-0.367-0.82-0.82-0.82v0h-7c-0.42 0-1.18 0.37-1.18 0.82zM17 1h5v5h-5z"></path>
<path d="M10 12h4v1h-4v-1z"></path>
<path d="M10 14h4v1h-4v-1z"></path>
<path d="M3 2h3v1h-3v-1z"></path>
<path d="M3 4h3v1h-3v-1z"></path>
<path d="M18 2h3v1h-3v-1z"></path>
<path d="M18 4h3v1h-3v-1z"></path>
</svg>
