<!-- Generated by IcoMoon.io -->
<svg version="1.1" xmlns="http://www.w3.org/2000/svg" width="24" height="24" viewBox="0 0 24 24">
<title>healthy</title>
<path d="M11.71 21.76l0.1 0.11v-0.22c-0.039 0.032-0.072 0.068-0.099 0.108l-0.001 0.002z"></path>
<path d="M16.34 17c-0.184 0.449-0.575 0.78-1.051 0.878l-0.009 0.002c-0.087 0.019-0.186 0.029-0.288 0.029-0.4 0-0.762-0.164-1.021-0.429l-0-0-6.5-6.62c-0.255-0.252-0.413-0.602-0.413-0.989 0-0.032 0.001-0.064 0.003-0.096l-0 0.004c0.034-0.406 0.232-0.759 0.527-0.998l0.003-0.002 1.66-1.4c0.242-0.194 0.552-0.311 0.89-0.311s0.648 0.117 0.893 0.313l-0.003-0.002 2.7 2.11c2.067-2.266 4.329-4.287 6.781-6.061l0.129-0.089-0.12-0.11c-1.085-0.856-2.473-1.372-3.981-1.372-1.061 0-2.062 0.256-2.946 0.709l0.036-0.017c-0.628 0.304-1.166 0.685-1.631 1.141l0.001-0.001-0.3 0.32c-0.12-0.11-0.21-0.21-0.31-0.32-0.458-0.463-0.994-0.848-1.586-1.135l-0.034-0.015c-0.847-0.436-1.848-0.692-2.909-0.692-1.508 0-2.895 0.517-3.994 1.383l0.014-0.010c-1.108 0.837-1.92 2.015-2.28 3.377l-0.010 0.043c-0.137 0.455-0.216 0.979-0.216 1.52 0 0.866 0.202 1.684 0.56 2.412l-0.014-0.032c0.090 0.18 0.17 0.35 0.27 0.52 0.197 0.382 0.406 0.709 0.641 1.015l-0.011-0.015c0.129 0.161 0.256 0.304 0.391 0.441l-0.001-0.001c0.31 0.31 0.64 0.6 1 0.91l0.070 0.070v-0.11c-0.002 0.018-0.004 0.039-0.004 0.060s0.001 0.042 0.004 0.062l-0-0.002 1 0.93-0.070-0.070h0.1v0.080l0.91 0.88 0.27 0.27 2.33 2.27 0.28 0.27 3.54 3.48c0.038 0.032 0.071 0.068 0.099 0.108l0.001 0.002c0.028-0.042 0.061-0.078 0.099-0.109l0.001-0.001 3.54-3.48 0.28-0.27 2.34-2.25 0.27-0.27 0.91-0.88v-0.080h0.1l-0.070 0.070 1-0.93c0.002-0.018 0.004-0.039 0.004-0.060s-0.001-0.042-0.004-0.062l0 0.002v0.11l0.080-0.070c0.32-0.31 0.65-0.6 1-0.91 0.528-0.549 0.965-1.191 1.283-1.898l0.017-0.042c0.335-0.686 0.531-1.492 0.531-2.345 0-0.37-0.037-0.731-0.107-1.080l0.006 0.035c-1.183 1.295-2.313 2.701-3.35 4.176l-0.090 0.134c-1.203 1.593-2.285 3.4-3.165 5.318l-0.075 0.182z"></path>
<path d="M18.24 15.33v0 0z"></path>
<path d="M19.3 14.3h-0.030z"></path>
<path d="M19.2 14.32v0.080l0.070-0.070z"></path>
<path d="M20.13 13.48v0-0.11c0.002 0.017 0.003 0.036 0.003 0.055s-0.001 0.038-0.003 0.057l0-0.002z"></path>
<path d="M11.6 21.65v0.22l0.11-0.11c-0.031-0.042-0.068-0.079-0.109-0.109l-0.001-0.001z"></path>
<path d="M11.7 21.75l0.010 0.010v-0.010h-0.010z"></path>
<path d="M3.25 13.36v0.11c-0.002-0.016-0.003-0.036-0.003-0.055s0.001-0.038 0.003-0.057l-0 0.002z"></path>
<path d="M4.11 14.3v0h0.070z"></path>
<path d="M4.14 14.33l0.070 0.070v-0.080z"></path>
<path d="M5.12 15.28v0 0z"></path>
<path d="M23.6 3.080c-3.725 2.35-6.915 5.123-9.631 8.312l-0.049 0.058-3.77-3-1.66 1.39 6.51 6.62c2.273-4.86 5.3-8.993 8.978-12.44l0.022-0.020z"></path>
</svg>
