<!-- Generated by IcoMoon.io -->
<svg version="1.1" xmlns="http://www.w3.org/2000/svg" width="24" height="24" viewBox="0 0 24 24">
<title>heart</title>
<path d="M12.019 22.050l-1.912-1.416c-3.975-3.056-6.675-5.672-7.941-8.1-0.741-1.463-1.050-3.047-0.947-4.734s0.666-3.084 1.697-4.2c1.416-1.228 3.009-1.763 4.791-1.612s3.216 1.575 4.303 2.925c-0.206-0.253 1.538-1.781 1.744-1.931 0.806-0.572 1.763-0.938 2.747-1.022 2.494-0.216 4.856 1.341 5.888 3.609 0.441 1.612 0.516 3.141 0.225 4.575s-0.881 2.766-1.772 3.994c-2.353 3.3-5.616 5.512-8.822 7.912z"></path>
</svg>
