<!-- Generated by IcoMoon.io -->
<svg version="1.1" xmlns="http://www.w3.org/2000/svg" width="24" height="24" viewBox="0 0 24 24">
<title>help</title>
<path d="M18.975 4.575c-0.356-0.778-0.872-1.453-1.519-2.025-0.647-0.563-1.425-1.003-2.316-1.313-1.734-0.591-4.284-0.637-6.047 0.056-0.863 0.338-1.631 0.834-2.278 1.463s-1.181 1.397-1.584 2.287c-0.394 0.881-0.647 1.884-0.741 2.963-0.009 0.056-0.028 0.375 0.197 0.628 0.103 0.122 0.3 0.263 0.637 0.263l2.756-0.009c0 0 0.084 0.019 0.216 0.019 0.506 0 0.862-0.291 0.947-0.759 0.516-2.916 1.791-3.253 2.709-3.253 0.384 0 1.012 0.066 1.322 0.178 0.3 0.122 0.572 0.291 0.788 0.497 0.216 0.216 0.384 0.459 0.516 0.75 0.122 0.281 0.188 0.609 0.188 0.956 0 0.197-0.009 0.375-0.038 0.534-0.019 0.131-0.084 0.272-0.188 0.441-0.122 0.188-0.309 0.412-0.553 0.675-0.262 0.272-0.628 0.6-1.078 0.984-1.134 0.947-1.941 1.884-2.381 2.784-0.234 0.478-0.403 1.125-0.506 1.903-0.103 0.75-0.15 1.378-0.159 2.456 0 0.066 0.009 0.384 0.262 0.647 0.122 0.131 0.356 0.281 0.731 0.281h2.597c0.553 0 0.938-0.375 0.938-0.919 0-1.931 0.169-2.288 0.281-2.513 0.056-0.122 0.188-0.347 0.516-0.684 0.291-0.3 0.675-0.656 1.163-1.059 1.219-1.003 2.025-1.912 2.466-2.784 0.478-0.872 0.722-1.847 0.722-2.897-0.019-0.909-0.206-1.772-0.563-2.55zM13.425 17.522v0 0 0z"></path>
<path d="M14.241 21.431c0 1.237-1.003 2.241-2.241 2.241s-2.241-1.003-2.241-2.241c0-1.237 1.003-2.241 2.241-2.241s2.241 1.003 2.241 2.241z"></path>
</svg>
