<!-- Generated by IcoMoon.io -->
<svg version="1.1" xmlns="http://www.w3.org/2000/svg" width="24" height="24" viewBox="0 0 24 24">
<title>home</title>
<path d="M23.9 13.7c0-0.2-0.2-0.5-0.4-0.7l-3-2.9-0.5-0.6v-4.5c0-0.6-0.7-1-1.5-1s-1.5 0.4-1.5 1v1.6l-4.3-4.3c-0.2-0.2-0.4-0.3-0.7-0.3 0 0 0 0-0.1 0s0 0-0.1 0c-0.3 0-0.5 0.1-0.7 0.3l-6.2 6.3-4.5 4.5c-0.2 0.2-0.4 0.5-0.4 0.7 0.1 1.2 1 1.2 1 1.2h3v6.9c0 0.6 0.5 1.1 1.1 1.1h6.9v-5c0-0.6 0.4-1 1-1h2c0.6 0 1 0.4 1 1v5h2.9c0.6 0 1.1-0.5 1.1-1.1v-6.9h3z"></path>
</svg>
