<!-- Generated by IcoMoon.io -->
<svg version="1.1" xmlns="http://www.w3.org/2000/svg" width="24" height="24" viewBox="0 0 24 24">
<title>horizontal_view</title>
<path d="M1.020 9.35h21.96c0.552 0 1 0.448 1 1v3.29c0 0.552-0.448 1-1 1h-21.96c-0.552 0-1-0.448-1-1v-3.29c0-0.552 0.448-1 1-1z"></path>
<path d="M1.020 0h21.96c0.552 0 1 0.448 1 1v3.17c0 0.552-0.448 1-1 1h-21.96c-0.552 0-1-0.448-1-1v-3.17c0-0.552 0.448-1 1-1z"></path>
<path d="M1.020 18.83h21.96c0.552 0 1 0.448 1 1v3.17c0 0.552-0.448 1-1 1h-21.96c-0.552 0-1-0.448-1-1v-3.17c0-0.552 0.448-1 1-1z"></path>
</svg>
