<!-- Generated by IcoMoon.io -->
<svg version="1.1" xmlns="http://www.w3.org/2000/svg" width="24" height="24" viewBox="0 0 24 24">
<title>hourglass</title>
<path d="M20 3v-2c0-0.56-0.3-1-0.82-1h-14.18c-0.552 0-1 0.448-1 1v0 2c-0.001 0.019-0.002 0.040-0.002 0.062 0 0.519 0.421 0.94 0.94 0.94 0.022 0 0.043-0.001 0.065-0.002l-0.003 0h1s-0.15 3.55 1.32 5.4c0.477 0.581 0.951 1.102 1.45 1.6l0 0v2s-1.070 1.12-1.46 1.6c-1.46 1.85-1.41 5.4-1.39 5.4h-0.92c-0.019-0.001-0.040-0.002-0.062-0.002-0.519 0-0.94 0.421-0.94 0.94 0 0.022 0.001 0.044 0.002 0.065l-0-0.003v2c0 0.552 0.448 1 1 1v0h14.14c0.52 0 0.82-0.45 0.82-1v-2c0-0.56-0.3-1-0.82-1h-1s0-3.58-1.48-5.42c-0.38-0.48-1.53-1.62-1.53-1.62v-1.96s1.14-1.14 1.53-1.62c1.53-1.84 1.56-5.38 1.54-5.38h1c0.52 0 0.82-0.42 0.82-1zM16.13 15.080c1.19 1.4 1.12 4.51 1.12 4.51h-1.88c-0.478-1.089-1.489-1.865-2.695-1.999l-0.015-0.001v-1c0-0.105-0.085-0.19-0.19-0.19v0h-0.94c-0.105 0-0.19 0.085-0.19 0.19v0 1c-1.154 0.226-2.098 0.972-2.591 1.979l-0.009 0.021h-1.87s0-3.11 1.17-4.51c0.491-0.44 1.042-0.831 1.634-1.157l0.046-0.023v-3.71l0.89 0.93 0.95 1h0.95l1.89-2h0.11v3.78c0.603 0.347 1.125 0.738 1.594 1.183l-0.004-0.003zM16.13 8.91c-0.41-0.52-1.64-1.64-4.55-1.64-0.072-0.004-0.155-0.007-0.239-0.007-1.344 0-2.544 0.615-3.335 1.579l-0.006 0.008c-1.13-1.42-1.14-4.44-1.13-4.44h10.38s0.080 3.11-1.12 4.51zM12.46 12.65h-0.94c-0.105 0-0.19 0.085-0.19 0.19v0 2.060c0 0.105 0.085 0.19 0.19 0.19h0.94c0.105 0 0.19-0.085 0.19-0.19v0-2.060c-0.005-0.097-0.083-0.175-0.18-0.18l-0-0z"></path>
</svg>
