<!-- Generated by IcoMoon.io -->
<svg version="1.1" xmlns="http://www.w3.org/2000/svg" width="24" height="24" viewBox="0 0 24 24">
<title>minimize</title>
<path d="M18.281 7.078c0-0.75-0.609-1.359-1.359-1.359h-14.813c-0.75 0-1.359 0.609-1.359 1.359v15.084c0 0.75 0.609 1.359 1.359 1.359h14.803c0.75 0 1.359-0.609 1.359-1.359v-15.084zM2.813 21.469v-10.5h13.313v10.5h-13.313zM21.994 18.394c0.881 0 1.538-0.694 1.538-1.575v-14.737c0-0.881-0.638-1.519-1.519-1.519h-14.306c-0.881 0-1.612 0.666-1.612 1.547v2.672h1.884l0.009-2.25h13.575v14.063h-2.25v1.791l2.681 0.009z"></path>
</svg>
