<!-- Generated by IcoMoon.io -->
<svg version="1.1" xmlns="http://www.w3.org/2000/svg" width="24" height="24" viewBox="0 0 24 24">
<title>no</title>
<path d="M12 0.984c-6.084 0-11.016 4.932-11.016 11.016s4.932 11.016 11.016 11.016c6.084 0 11.016-4.932 11.016-11.016-0.007-6.081-4.935-11.009-11.015-11.016zM12 4.875c0.002 0 0.004 0 0.006 0 1.395 0 2.695 0.403 3.791 1.099l-9.844 9.795c-0.677-1.070-1.078-2.373-1.078-3.769 0-3.935 3.19-7.125 7.124-7.125zM12 19.125c-0.002 0-0.004 0-0.006 0-1.15 0-2.237-0.274-3.197-0.761l9.589-9.527c0.467 0.922 0.741 2.011 0.741 3.163 0 3.935-3.19 7.125-7.125 7.125-0 0-0.001 0-0.001 0z"></path>
</svg>
