<!-- Generated by IcoMoon.io -->
<svg version="1.1" xmlns="http://www.w3.org/2000/svg" width="24" height="24" viewBox="0 0 24 24">
<title>offline</title>
<path d="M10 2h4v14h-4v-14z"></path>
<path d="M6.2 4c-1.298 0.501-2.42 1.114-3.445 1.851l0.045-0.031c-0.61 0.43-1.19 0.91-1.77 1.39-0.35 0.29-0.66 0.63-1 0.95v0l0.15 0.11 1.57 1.49c1.842-1.952 4.222-3.377 6.903-4.040l0.097-0.020v-2.38c-0.983 0.181-1.839 0.416-2.664 0.716l0.114-0.036z"></path>
<path d="M23.88 8c-0.649-0.672-1.348-1.285-2.095-1.838l-0.045-0.032c-1.829-1.365-4.014-2.364-6.387-2.843l-0.103-0.017v2.4c2.785 0.677 5.169 2.116 6.992 4.081l0.008 0.009 1.75-1.6c-0.046-0.046-0.086-0.099-0.118-0.156l-0.002-0.004z"></path>
<path d="M3.37 11.52l1.71 1.55c1-1.073 2.23-1.918 3.613-2.457l0.067-0.023v-2.46c-2.161 0.605-3.994 1.791-5.379 3.377l-0.011 0.013z"></path>
<path d="M19 13.060l1.71-1.55c-1.417-1.591-3.26-2.774-5.35-3.371l-0.080-0.019v2.45c1.466 0.56 2.71 1.409 3.715 2.484l0.005 0.006z"></path>
<path d="M15.62 16.35l1.54-1.28 0.24-0.21c-0.592-0.697-1.305-1.271-2.111-1.692l-0.039-0.018v2.85c0.133 0.113 0.254 0.228 0.368 0.348l0.002 0.002z"></path>
<path d="M8.75 13.16c-0.83 0.434-1.529 1.008-2.091 1.698l-0.009 0.012 1.77 1.49c0.117-0.127 0.238-0.244 0.365-0.355l0.005-0.005z"></path>
<path d="M12 17c-1.292 0-2.34 1.048-2.34 2.34s1.048 2.34 2.34 2.34c1.292 0 2.34-1.048 2.34-2.34 0-0.004 0-0.007-0-0.011v0.001c-0.006-1.288-1.051-2.33-2.34-2.33 0 0-0 0-0 0v0z"></path>
</svg>
