<!-- Generated by IcoMoon.io -->
<svg version="1.1" xmlns="http://www.w3.org/2000/svg" width="24" height="24" viewBox="0 0 24 24">
<title>refresh</title>
<path d="M23 12.22c0-0.004 0-0.008 0-0.012 0-3.554-1.611-6.731-4.142-8.843l-0.018-0.015c-1.981-1.657-4.556-2.663-7.366-2.663-3.21 0-6.114 1.313-8.203 3.431l-0.001 0.001-2.27-2.12v8l8-2.64-3.28-1.2c1.492-1.419 3.515-2.292 5.742-2.292 2.036 0 3.903 0.73 5.351 1.942l-0.013-0.011c1.742 1.658 2.825 3.993 2.825 6.582 0 0.105-0.002 0.209-0.005 0.313l0-0.015zM1 12.68c0 3.3 0.36 5.91 3.1 8.19 1.909 1.53 4.359 2.455 7.026 2.455 0.121 0 0.242-0.002 0.362-0.006l-0.018 0c0.073 0.002 0.16 0.003 0.247 0.003 3.127 0 5.957-1.27 8.003-3.322l0-0 2.56 3.27v-8h-8l3 2.89c-1.499 1.444-3.54 2.333-5.789 2.333-2.033 0-3.896-0.726-5.344-1.934l0.013 0.011c-2-1.65-2.47-3.55-2.48-6z"></path>
</svg>
