<!-- Generated by IcoMoon.io -->
<svg version="1.1" xmlns="http://www.w3.org/2000/svg" width="24" height="24" viewBox="0 0 24 24">
<title>search</title>
<path d="M22.418 19.362l-6.509-6.509c0.054-0.094 0.105-0.188 0.155-0.281l0.076-0.141c0.353-0.631 0.629-1.364 0.789-2.138 0.11-0.504 0.171-1.026 0.176-1.562-0.003-0.162-0.017-0.314-0.042-0.463-0.008-0.058-0.018-0.135-0.026-0.213-0.063-0.803-0.239-1.546-0.511-2.241-1.174-2.828-3.963-4.818-7.216-4.818s-6.042 1.99-7.216 4.819c-0.356 0.891-0.551 1.865-0.551 2.884 0 2.363 1.051 4.48 2.71 5.91 1.466 1.254 3.208 1.911 5.059 1.911 0.905-0.005 1.771-0.169 2.572-0.464l6.885 6.954c0.041 0.041 0.097 0.066 0.16 0.066s0.119-0.025 0.16-0.066l3.33-3.33c0.040-0.041 0.065-0.097 0.065-0.158s-0.025-0.119-0.066-0.159zM13.289 8.726c0 0 0 0 0 0 0 1.442-0.773 2.703-1.927 3.392-0.595 0.373-1.297 0.588-2.050 0.588s-1.454-0.215-2.048-0.587c-1.134-0.696-1.89-1.947-1.89-3.375 0-2.185 1.772-3.957 3.957-3.957 2.179 0 3.947 1.761 3.957 3.938z"></path>
</svg>
