<!-- Generated by IcoMoon.io -->
<svg version="1.1" xmlns="http://www.w3.org/2000/svg" width="24" height="24" viewBox="0 0 24 24">
<title>server</title>
<path d="M18.45 0h-12.9c-0.006-0-0.013-0-0.020-0-0.845 0-1.53 0.685-1.53 1.53 0 0.007 0 0.014 0 0.021v-0.001 20.73c0.006 0.835 0.684 1.51 1.52 1.51 0 0 0 0 0 0h12.9c0.018 0.001 0.039 0.001 0.060 0.001 0.836 0 1.515-0.676 1.52-1.511v-20.73c0-0.006 0-0.013 0-0.020 0-0.845-0.685-1.53-1.53-1.53-0.007 0-0.014 0-0.021 0h0.001zM12 22c-0.828 0-1.5-0.672-1.5-1.5s0.672-1.5 1.5-1.5c0.828 0 1.5 0.672 1.5 1.5v0c0 0.828-0.672 1.5-1.5 1.5v0zM18 13h-12v-10h12z"></path>
<path d="M8 5h8v2h-8v-2z"></path>
<path d="M8 9h8v2h-8v-2z"></path>
</svg>
