<!-- Generated by IcoMoon.io -->
<svg version="1.1" xmlns="http://www.w3.org/2000/svg" width="24" height="24" viewBox="0 0 24 24">
<title>server1</title>
<path d="M0 4.5v15.5c0 0.83 1.9 1.52 3 1.52v-18.52c-1.1 0-3 0.67-3 1.5z"></path>
<path d="M21 3v18.52c1.1 0 3-0.68 3-1.52v-15.5c0-0.83-1.9-1.5-3-1.5z"></path>
<path d="M18.45 0h-12.9c-0.006-0-0.013-0-0.020-0-0.845 0-1.53 0.685-1.53 1.53 0 0.007 0 0.014 0 0.021v-0.001 20.73c0.006 0.835 0.684 1.51 1.52 1.51 0 0 0 0 0 0h12.9c0.018 0.001 0.039 0.001 0.060 0.001 0.836 0 1.515-0.676 1.52-1.511v-20.73c0-0.006 0-0.013 0-0.020 0-0.845-0.685-1.53-1.53-1.53-0.007 0-0.014 0-0.021 0h0.001zM12 22c-0.828 0-1.5-0.672-1.5-1.5s0.672-1.5 1.5-1.5c0.828 0 1.5 0.672 1.5 1.5v0c0 0.828-0.672 1.5-1.5 1.5v0zM18 10.34c0.003 0.035 0.004 0.075 0.004 0.116 0 0.808-0.619 1.472-1.408 1.544l-0.006 0h-9.18c-0.796-0.072-1.414-0.736-1.414-1.544 0-0.041 0.002-0.081 0.005-0.121l-0 0.005v-6.67c-0.003-0.035-0.004-0.076-0.004-0.117 0-0.81 0.618-1.476 1.408-1.553l0.006-0h9.17c0.801 0.072 1.424 0.74 1.424 1.554 0 0.041-0.002 0.081-0.005 0.121l0-0.005z"></path>
<path d="M8 8h8v2h-8v-2z"></path>
<path d="M8 4h8v2h-8v-2z"></path>
</svg>
