<!-- Generated by IcoMoon.io -->
<svg version="1.1" xmlns="http://www.w3.org/2000/svg" width="24" height="24" viewBox="0 0 24 24">
<title>settings</title>
<path d="M10.925 22.977c-0.001 0-0.002 0-0.003 0-0.084 0-0.156-0.053-0.184-0.128l-1.032-2.882-1.528-0.627-2.712 1.379c-0.026 0.013-0.056 0.021-0.088 0.021-0.054 0-0.103-0.022-0.139-0.058l-1.737-1.739c-0.035-0.035-0.057-0.084-0.057-0.138 0-0.030 0.007-0.059 0.019-0.085l1.303-2.771-0.641-1.528-2.57-0.827-0.39-0.112c-0.083-0.024-0.142-0.099-0.142-0.187v-2.458c0-0.001-0-0.002-0-0.003 0-0.085 0.054-0.157 0.13-0.185l2.941-1.032 0.678-1.528-1.374-2.707c-0.013-0.026-0.021-0.056-0.021-0.088 0-0.054 0.022-0.103 0.057-0.138l1.734-1.735c0.035-0.035 0.084-0.057 0.138-0.057 0.030 0 0.059 0.007 0.085 0.019l2.772 1.304 1.528-0.634 0.83-2.543 0.113-0.353c0.026-0.080 0.1-0.136 0.187-0.136 0 0 0.001 0 0.001 0h2.453c0.001-0 0.002-0 0.003-0 0.085 0 0.157 0.054 0.184 0.129l1.032 2.894 1.528 0.642 2.705-1.375c0.026-0.013 0.056-0.021 0.089-0.021 0.054 0 0.104 0.022 0.139 0.058l1.733 1.735c0.035 0.035 0.057 0.084 0.057 0.138 0 0.030-0.007 0.059-0.019 0.085l-1.319 2.769 0.622 1.528 2.515 0.83 0.306 0.116c0.075 0.029 0.127 0.1 0.127 0.183 0 0.002-0 0.003-0 0.004v2.453c0 0.001 0 0.002 0 0.004 0 0.084-0.053 0.156-0.127 0.184l-2.836 1.032-0.589 1.528 1.377 2.71c0.013 0.026 0.021 0.056 0.021 0.088 0 0.054-0.022 0.103-0.058 0.139l-1.732 1.73c-0.035 0.035-0.084 0.057-0.138 0.057-0.030 0-0.059-0.007-0.085-0.019l-2.771-1.312-1.528 0.632-0.831 2.537-0.113 0.341c-0.027 0.079-0.1 0.134-0.186 0.134-0.001 0-0.001 0-0.002 0h-2.452zM12.099 8.772c-1.789 0-3.24 1.451-3.24 3.24s1.451 3.24 3.24 3.24c1.789 0 3.24-1.451 3.24-3.24-0.002-1.789-1.451-3.238-3.24-3.24zM13.274 1.219l1.063 2.975 1.687 0.708 2.785-1.417 1.732 1.735-1.354 2.85 0.688 1.692 2.602 0.858 0.297 0.113v2.453l-2.913 1.063-0.656 1.692 1.252 2.463 0.167 0.326-1.735 1.735-2.849-1.349-1.688 0.699-0.858 2.625-0.117 0.339h-2.453l-1.064-2.963-1.688-0.695-2.797 1.417-1.736-1.736 1.341-2.851-0.713-1.688-2.652-0.86-0.397-0.114v-2.455l3.020-1.063 0.75-1.688-1.251-2.468-0.166-0.324 1.735-1.731 2.849 1.342 1.688-0.702 0.858-2.625 0.12-0.358h2.453zM12.099 15.448c0 0 0.001 0 0.001 0 1.898 0 3.436-1.538 3.436-3.436s-1.538-3.436-3.436-3.436c-1.898 0-3.436 1.538-3.436 3.436s1.538 3.435 3.435 3.436zM13.274 0.823h-2.452c-0 0-0.001 0-0.002 0-0.174 0-0.321 0.113-0.373 0.27l-0.114 0.356-0.801 2.456-1.365 0.563-2.693-1.265c-0.049-0.024-0.106-0.037-0.167-0.037-0.108 0-0.207 0.044-0.277 0.115l-1.734 1.734c-0.071 0.071-0.115 0.169-0.115 0.277 0 0.065 0.016 0.126 0.044 0.18l1.33 2.622-0.606 1.366-2.86 1.007c-0.154 0.055-0.261 0.2-0.262 0.369v2.454c0 0.177 0.118 0.326 0.278 0.374l0.395 0.116 2.475 0.801 0.576 1.365-1.269 2.691c-0.024 0.049-0.037 0.106-0.037 0.167 0 0.108 0.044 0.207 0.115 0.277l1.741 1.736c0.071 0.071 0.169 0.115 0.277 0.115 0.065 0 0.126-0.016 0.18-0.044l2.629-1.335 1.365 0.563 1.005 2.798c0.056 0.153 0.2 0.26 0.369 0.26 0 0 0 0 0 0h2.452c0.001 0 0.002 0 0.003 0 0.172 0 0.318-0.111 0.371-0.265l0.114-0.343 0.803-2.453 1.364-0.563 2.694 1.274c0.049 0.024 0.107 0.038 0.168 0.038 0.108 0 0.206-0.044 0.277-0.115l1.734-1.739c0.071-0.071 0.115-0.169 0.115-0.277 0-0.065-0.016-0.126-0.044-0.18l-0.165-0.323-1.173-2.307 0.525-1.363 2.751-1.002c0.152-0.056 0.258-0.2 0.258-0.368 0-0 0-0 0-0v-2.454c0-0 0-0 0-0 0-0.166-0.103-0.308-0.25-0.365l-0.3-0.114-0.017-0.006-2.43-0.801-0.555-1.365 1.284-2.693c0.024-0.049 0.038-0.107 0.038-0.168 0-0.108-0.044-0.206-0.115-0.277l-1.736-1.735c-0.071-0.071-0.169-0.115-0.277-0.115-0.065 0-0.126 0.016-0.18 0.044l-0.321 0.164-2.301 1.169-1.365-0.571-1.005-2.813c-0.056-0.153-0.2-0.26-0.369-0.26-0 0-0 0-0 0h0zM12.099 15.056c-1.681 0-3.044-1.363-3.044-3.044s1.363-3.044 3.044-3.044c1.681 0 3.044 1.363 3.044 3.044-0.002 1.681-1.364 3.042-3.044 3.044h-0z"></path>
</svg>
