<!-- Generated by IcoMoon.io -->
<svg version="1.1" xmlns="http://www.w3.org/2000/svg" width="24" height="24" viewBox="0 0 24 24">
<title>sql_log</title>
<path d="M12 18.14c-0.122 0.002-0.265 0.004-0.409 0.004-2.391 0-4.696-0.367-6.863-1.048l0.162 0.044c-0.885-0.276-1.655-0.664-2.345-1.157l0.025 0.017v3.8c0 1 1.33 1.89 3.43 2.48 1.709 0.459 3.671 0.722 5.695 0.722 0.107 0 0.214-0.001 0.321-0.002l-0.016 0c5.21 0 9.43-1.44 9.43-3.21v-3.79c-0.662 0.478-1.429 0.869-2.252 1.134l-0.058 0.016c-1.995 0.631-4.29 0.994-6.669 0.994-0.159 0-0.317-0.002-0.474-0.005l0.024 0zM21.43 13.75v-3.92c-0.665 0.484-1.435 0.882-2.261 1.153l-0.059 0.017c-2.007 0.637-4.314 1.004-6.708 1.004-0.141 0-0.283-0.001-0.423-0.004l0.021 0c-0.119 0.002-0.26 0.003-0.401 0.003-2.394 0-4.702-0.367-6.872-1.047l0.162 0.044c-0.885-0.287-1.655-0.685-2.344-1.186l0.024 0.016v3.91c0.31 1.68 4.42 3 9.43 3s9.11-1.32 9.43-3zM2.57 7.56c0.23 1.7 4.37 3.060 9.43 3.060s9.2-1.36 9.43-3.060v-3.33c0-1.78-4.22-3.23-9.43-3.23s-9.43 1.45-9.43 3.23z"></path>
</svg>
