<!-- Generated by IcoMoon.io -->
<svg version="1.1" xmlns="http://www.w3.org/2000/svg" width="24" height="24" viewBox="0 0 24 24">
<title>switchView</title>
<path d="M21.188 6h-18.469c-0.928 0-1.688-0.759-1.688-1.688s0.759-1.688 1.688-1.688h18.469c0.928 0 1.688 0.759 1.688 1.688s-0.759 1.688-1.688 1.688z"></path>
<path d="M21.188 13.781h-18.469c-0.928 0-1.688-0.759-1.688-1.688s0.759-1.688 1.688-1.688h18.469c0.928 0 1.688 0.759 1.688 1.688s-0.759 1.688-1.688 1.688z"></path>
<path d="M21.188 21.469h-18.469c-0.928 0-1.688-0.759-1.688-1.688s0.759-1.688 1.688-1.688h18.469c0.928 0 1.688 0.759 1.688 1.688s-0.759 1.688-1.688 1.688z"></path>
</svg>
