<!-- Generated by IcoMoon.io -->
<svg version="1.1" xmlns="http://www.w3.org/2000/svg" width="24" height="24" viewBox="0 0 24 24">
<title>tile_view</title>
<path d="M1 0h3.58c0.552 0 1 0.448 1 1v3.58c0 0.552-0.448 1-1 1h-3.58c-0.552 0-1-0.448-1-1v-3.58c0-0.552 0.448-1 1-1z"></path>
<path d="M1 18.42h3.58c0.552 0 1 0.448 1 1v3.58c0 0.552-0.448 1-1 1h-3.58c-0.552 0-1-0.448-1-1v-3.58c0-0.552 0.448-1 1-1z"></path>
<path d="M1 9.21h3.58c0.552 0 1 0.448 1 1v3.58c0 0.552-0.448 1-1 1h-3.58c-0.552 0-1-0.448-1-1v-3.58c0-0.552 0.448-1 1-1z"></path>
<path d="M10.21 0h3.58c0.552 0 1 0.448 1 1v3.58c0 0.552-0.448 1-1 1h-3.58c-0.552 0-1-0.448-1-1v-3.58c0-0.552 0.448-1 1-1z"></path>
<path d="M10.21 18.42h3.58c0.552 0 1 0.448 1 1v3.58c0 0.552-0.448 1-1 1h-3.58c-0.552 0-1-0.448-1-1v-3.58c0-0.552 0.448-1 1-1z"></path>
<path d="M10.21 9.21h3.58c0.552 0 1 0.448 1 1v3.58c0 0.552-0.448 1-1 1h-3.58c-0.552 0-1-0.448-1-1v-3.58c0-0.552 0.448-1 1-1z"></path>
<path d="M19.42 0h3.58c0.552 0 1 0.448 1 1v3.58c0 0.552-0.448 1-1 1h-3.58c-0.552 0-1-0.448-1-1v-3.58c0-0.552 0.448-1 1-1z"></path>
<path d="M19.42 18.42h3.58c0.552 0 1 0.448 1 1v3.58c0 0.552-0.448 1-1 1h-3.58c-0.552 0-1-0.448-1-1v-3.58c0-0.552 0.448-1 1-1z"></path>
<path d="M19.42 9.21h3.58c0.552 0 1 0.448 1 1v3.58c0 0.552-0.448 1-1 1h-3.58c-0.552 0-1-0.448-1-1v-3.58c0-0.552 0.448-1 1-1z"></path>
</svg>
