<!-- Generated by IcoMoon.io -->
<svg version="1.1" xmlns="http://www.w3.org/2000/svg" width="24" height="24" viewBox="0 0 24 24">
<title>wand</title>
<path d="M14.664 4.594c0.491-0.011 0.885-0.412 0.885-0.904 0-0.007-0-0.014-0-0.021l-0.062-2.831c-0.011-0.491-0.412-0.885-0.905-0.885-0.5 0-0.905 0.405-0.905 0.905 0 0.007 0 0.014 0 0.021l0.062 2.829c0.010 0.492 0.411 0.887 0.905 0.887 0.007 0 0.014-0 0.021-0zM19.18 5.787l1.957-2.047c0.156-0.162 0.251-0.383 0.251-0.626 0-0.5-0.405-0.905-0.905-0.905-0.257 0-0.488 0.107-0.653 0.279l-1.959 2.046c-0.155 0.162-0.251 0.383-0.251 0.625 0 0.5 0.405 0.905 0.905 0.905 0.257 0 0.489-0.107 0.654-0.279zM10.232 6.125c0.162 0.156 0.383 0.251 0.626 0.251 0.5 0 0.905-0.405 0.905-0.905 0-0.257-0.107-0.488-0.279-0.653l-2.046-1.961c-0.162-0.155-0.383-0.251-0.625-0.251-0.5 0-0.905 0.405-0.905 0.905 0 0.257 0.107 0.489 0.279 0.654zM19.232 12.237c-0.162-0.156-0.383-0.251-0.626-0.251-0.5 0-0.905 0.405-0.905 0.905 0 0.257 0.107 0.488 0.279 0.653l2.046 1.958c0.163 0.156 0.384 0.252 0.628 0.252 0.501 0 0.907-0.406 0.907-0.907 0-0.257-0.107-0.489-0.279-0.654zM15.188 5.036l-15.145 15.817 3.333 3.194 15.145-15.817zM11.685 10.627l3.675-3.844 1.406 1.347-3.675 3.844zM23.034 8.063l-2.83 0.062c-0.491 0.011-0.885 0.412-0.885 0.905 0 0.5 0.405 0.905 0.905 0.905 0.007 0 0.014-0 0.021-0l2.829-0.062c0.491-0.011 0.885-0.412 0.885-0.905 0-0.5-0.405-0.905-0.905-0.905-0.007 0-0.014 0-0.021 0z"></path>
</svg>
