<!-- Generated by IcoMoon.io -->
<svg version="1.1" xmlns="http://www.w3.org/2000/svg" width="24" height="24" viewBox="0 0 24 24">
<title>warning</title>
<path d="M23.8 20.5l-10.9-18.9c-0.4-0.6-1.4-0.6-1.8 0l-10.9 18.9c-0.2 0.3-0.2 0.7 0 1s0.5 0.5 0.9 0.5h21.9c0.4 0 0.7-0.2 0.9-0.5 0.1-0.3 0.1-0.7-0.1-1zM13.5 19.2c0 0.5-0.4 0.8-0.8 0.8h-1.3c-0.5 0-0.8-0.4-0.8-0.8v-1.3c0-0.5 0.4-0.8 0.8-0.8h1.3c0.5 0 0.8 0.4 0.8 0.8v1.3zM13.4 15.1c0 0.4-0.3 0.9-0.7 0.9h-1.5c-0.3 0-0.6-0.4-0.7-0.8l-0.4-6.3c0-0.2 0-0.4 0.2-0.6s0.4-0.3 0.6-0.3h2.3c0.2 0 0.4 0 0.5 0.2s0.2 0.4 0.2 0.7l-0.5 6.2z"></path>
</svg>
