<!-- Generated by IcoMoon.io -->
<svg version="1.1" xmlns="http://www.w3.org/2000/svg" width="24" height="24" viewBox="0 0 24 24">
<title>warning2</title>
<path d="M14.513 18.844v2.184c0 0.778-0.628 1.406-1.406 1.406h-2.184c-0.778 0-1.406-0.628-1.406-1.406v-2.184c0-0.778 0.628-1.406 1.406-1.406h2.184c0.778-0.009 1.406 0.628 1.406 1.406z"></path>
<path d="M15.178 1.941c0.216 0.3 0.319 0.731 0.281 1.134l-1.078 11.25c-0.066 0.713-0.544 1.434-1.116 1.434h-2.512c-0.572 0-1.050-0.694-1.116-1.406l-1.097-11.381c-0.037-0.394 0.066-0.741 0.281-1.041s0.516-0.356 0.834-0.356l4.688 0.019c0.319-0.009 0.619 0.047 0.834 0.347z"></path>
</svg>
