<!-- Generated by IcoMoon.io -->
<svg version="1.1" xmlns="http://www.w3.org/2000/svg" width="24" height="24" viewBox="0 0 24 24">
<title>web</title>
<path d="M12 0.984c-6.084 0-11.016 4.932-11.016 11.016s4.932 11.016 11.016 11.016c6.084 0 11.016-4.932 11.016-11.016s-4.932-11.016-11.016-11.016zM18.656 17.438c-1.688 1.659-4.464 2.506-6.722 2.445-2.983-0.081-6.556-3.17-5.508-5.508s1.031-4.125 0.066-4.21-3.305-1.533-1.836-3.672c1.531-2.227 3.671-1.836 3.671-1.836s3.032-2.287 2.79-0.433-3.050 2.812-0.954 4.105 1.836 0 3.672 1.836c2.405 2.405-0.403 4.379 0 5.508s0.909 1.289 2.361 0.644 2.258-2.096 2.258-4.515-0.946-5.309 1.532-4.514c0.787 0.252 0.758 1.594 0.788 2.242 0.078 1.711 0.204 2.733 0 3.656-0.248 1.125-0.87 2.719-1.581 3.644-0.172 0.223-0.347 0.422-0.536 0.608z"></path>
</svg>
